<?xml version="1.0" encoding="utf-8"?>
<svg width="451px" height="160px" viewBox="0 0 451 160" version="1.1" xmlns:xlink="http://www.w3.org/1999/xlink" xmlns="http://www.w3.org/2000/svg">
  <defs>
    <linearGradient x1="0" y1="0" x2="1" y2="1" id="gradient_1">
      <stop offset="0%" stop-color="#305F72" />
      <stop offset="100%" stop-color="#95748E" />
    </linearGradient>
    <filter filterUnits="userSpaceOnUse" color-interpolation-filters="sRGB" id="filter_1">
      <feFlood flood-opacity="0" result="BackgroundImageFix" />
      <feColorMatrix in="SourceAlpha" type="matrix" values="0 0 0 0 0 0 0 0 0 0 0 0 0 0 0 0 0 0 127 0" />
      <feOffset dx="0" dy="2" />
      <feGaussianBlur stdDeviation="2" />
      <feColorMatrix type="matrix" values="0 0 0 0 0 0 0 0 0 0 0 0 0 0 0 0 0 0 0.4 0" />
      <feBlend mode="normal" in2="BackgroundImageFix" result="effect0_dropShadow" />
      <feBlend mode="normal" in="SourceGraphic" in2="effect0_dropShadow" result="shape" />
    </filter>
  </defs>
  <g fill="url(#gradient_1)" stroke="none" id="M.I.-S-tudio" filter="url(#filter_1)" transform="translate(6 4)">
    <path d="M117.216 72.2C116.856 72.776 117.072 73.496 117.648 73.64C117.936 73.64 118.224 73.64 118.44 73.496C118.8 73.424 119.16 73.064 119.376 72.704C133.848 48.296 161.712 24.176 188.64 22.016C195.264 21.44 198.36 24.248 199.512 29.648C199.728 30.944 199.872 32.528 199.872 33.968C199.872 50.816 184.896 80.12 174.312 96.968C166.464 109.208 144.936 139.16 129.456 138.224C126.864 138.08 125.064 137.072 123.264 135.704L123.264 135.776C122.976 135.488 122.544 135.488 122.184 135.632L121.608 136.064C121.032 136.64 121.032 137.36 121.392 137.72C122.904 138.872 124.632 139.88 126.792 140.384C127.656 140.528 128.52 140.672 129.384 140.672C146.088 140.672 167.328 111.512 175.464 99.128C186.84 81.704 202.32 51.464 202.32 33.176C202.32 31.664 202.248 30.008 201.96 28.64C200.664 22.232 196.92 19.064 189.288 19.64C160.848 21.872 132.12 46.424 117.216 72.2ZM33.48 32.6C34.2 32.528 34.56 32.96 34.416 33.608L34.416 33.68C31.968 42.536 28.224 52.904 24.912 61.904C20.592 73.784 16.848 83.72 12.384 95.744C13.68 93.224 15.12 90.632 16.344 88.328C24.624 72.488 54.864 16.688 75.672 19.712C80.136 20.36 81.72 23.888 81.72 28.64C81.72 36.992 76.752 49.232 74.232 55.568C72.576 59.6 69.84 65.936 68.112 69.896C65.304 76.304 62.496 82.712 60.12 89.048C59.616 90.272 57.312 96.392 57.312 99.416C57.312 100.64 57.744 101.504 58.752 101.216C62.856 100.28 77.688 77.456 82.872 69.536L84.024 67.736L84.744 66.656C88.56 60.752 99.072 44.696 103.896 42.896C106.848 41.816 107.496 44.336 107.496 47.36C107.496 49.304 107.208 51.392 106.992 52.76C106.92 53.048 106.92 53.264 106.92 53.48C105.192 65.72 101.088 80.912 97.56 93.44L97.56 93.368C97.272 94.52 96.912 95.672 96.552 96.824C95.04 102.224 92.232 111.728 90.432 116.84C90.216 117.488 89.496 117.92 88.848 117.92C88.128 117.92 87.912 117.344 88.056 116.696C91.656 106.544 104.976 60.752 104.976 48.008C104.976 46.856 104.904 45.92 104.616 45.344C103.752 43.616 97.92 51.464 96.768 53.048C96.552 53.264 96.408 53.408 96.408 53.552C91.584 60.032 86.976 66.944 82.512 73.784C80.064 77.528 77.616 81.272 75.168 84.872L74.232 86.168C70.776 91.28 62.496 103.448 57.888 103.664C55.584 103.736 54.864 102.152 54.864 99.992C54.864 96.392 56.88 91.136 57.744 88.832C60.048 82.712 62.856 76.448 65.592 70.112C67.608 65.504 69.624 60.824 71.496 56.288C73.872 50.6 79.272 37.712 79.272 29.432C79.272 25.472 77.976 22.52 74.592 22.016C56.448 19.424 26.928 72.92 18.504 88.76C13.464 98.48 6.696 111.872 2.952 121.664L2.304 123.608L2.304 123.536C2.16 124.184 1.44 124.76 0.792 124.832C0.144 124.832 -0.288 124.328 -0.144 123.68L0.576 121.52L1.512 118.928C5.04 109.064 8.712 99.128 12.384 89.264C15.84 80.12 19.224 70.976 22.536 61.76L24.048 57.584C26.856 49.88 30.024 41.096 31.968 33.752C32.112 33.176 32.832 32.6 33.48 32.6ZM310.752 44.84C310.032 45.056 309.528 45.704 309.528 46.28C309.528 46.856 310.104 47.288 310.896 47.072C314.856 45.632 317.016 42.68 317.952 39.08C318.24 37.928 318.312 36.848 318.312 35.768C318.312 28.928 313.632 22.952 307.944 20.792C305.856 20 303.624 19.64 301.176 19.64C294.48 19.64 286.704 22.592 279.576 25.904C261.072 34.688 231.912 55.64 221.976 73.064C220.248 76.232 219.384 78.896 219.384 81.2C219.384 84.656 221.4 87.248 224.856 89.624C230.688 93.44 240.048 95.888 248.616 98.192C252.576 99.272 256.464 100.208 259.992 101.36C247.824 107.336 236.808 113.384 230.904 118.496C228.168 120.872 226.224 123.464 226.224 125.624C226.224 126.992 227.016 128.216 228.888 129.008C230.4 129.656 232.488 129.944 234.864 129.944C243.072 129.944 255.384 126.272 262.296 123.104C268.2 120.368 275.832 115.328 275.832 110.072C275.832 108.92 275.4 107.552 274.608 106.4C273.024 104.312 269.784 102.368 266.184 100.856C273.672 97.256 277.056 96.032 281.376 94.376C284.4 93.224 287.856 91.928 293.616 89.552C294.264 89.264 294.696 88.544 294.624 87.968C294.552 87.392 294.12 87.104 293.472 87.32C293.256 87.392 293.184 87.392 293.184 87.392C289.872 88.832 287.136 89.84 284.256 90.92C279.216 92.864 273.384 95.096 263.448 99.848C258.336 98.048 252.504 96.536 248.04 95.384L244.512 94.448L244.584 94.448L244.238 94.3517C237.042 92.3517 220.206 87.6717 222.048 78.392C224.28 70.328 235.152 59.24 242.136 53.12C256.248 40.808 282.384 23.888 298.656 22.016C308.448 21.368 316.44 28.568 315.792 37.568C315.576 40.52 314.424 43.472 310.752 44.84ZM421.056 32.672C420.264 42.536 405 66.656 392.04 82.712L390.744 84.296C390.816 87.32 391.32 90.704 392.616 92.288C393.408 93.224 394.416 93.584 395.496 93.584C398.52 93.584 402.48 90.776 405.504 88.4L405.504 88.472L405.551 88.4295C406.286 86.1918 407.261 84.0219 408.096 82.352C408.456 81.704 409.104 81.344 409.68 81.416C410.4 81.488 410.688 82.064 410.328 82.784L410.256 82.784C410.184 82.856 410.184 83 410.184 83.072C408.888 85.736 406.944 90.416 406.944 93.584C406.944 95.96 408.096 97.4 411.192 96.824C414.288 96.104 418.896 92.432 422.208 89.768L422.208 89.84L422.694 89.4286C423.679 86.7603 425.249 84.0532 426.96 81.848C427.392 81.272 428.256 81.056 428.76 81.272C429.192 81.56 429.336 82.208 428.904 82.784C429.12 82.568 429.336 82.424 429.552 82.28C430.992 81.2 433.08 80.336 434.808 80.336C435.6 80.336 436.32 80.552 436.824 81.056L436.824 80.984C437.472 81.56 437.688 82.424 437.688 83.504C437.688 86.96 435.096 92.288 433.08 94.808C430.704 97.688 427.824 99.344 425.448 99.344C423.576 99.344 422.208 98.264 421.776 96.104C421.574 95.0555 421.602 93.8848 421.809 92.6532C417.402 96.0004 411.652 99.7508 408.24 99.272C405.432 98.84 404.424 96.896 404.424 94.304C404.424 93.4436 404.53 92.5247 404.713 91.581C401.897 93.6159 398.655 95.5158 395.712 95.96C390.6 96.464 388.584 92.432 388.296 87.032C384.768 90.992 381.672 94.088 379.224 96.104C377.064 97.76 374.472 99.272 372.384 99.272C371.232 99.272 370.296 98.84 369.648 97.76C368.797 96.3659 369.219 94.4599 370.334 92.4238C366.091 95.4365 361.257 98.696 358.344 98.696C356.4 98.696 355.176 96.968 355.464 93.224C355.536 92.36 355.824 91.064 356.112 89.84C356.328 88.76 356.544 87.824 356.616 87.104L356.472 87.176C355.248 87.896 353.52 89.552 351.648 91.352C347.184 95.672 341.712 100.928 338.688 98.912C337.68 98.192 337.32 97.112 337.32 95.672C337.32 94.5503 337.569 93.2543 337.975 91.9104C332.632 95.9517 326.786 100.119 321.408 103.664C321.264 103.808 320.904 103.952 320.76 104.096C316.8 106.688 308.088 112.376 304.848 111.44C303.192 111.008 302.544 109.28 302.544 106.688C302.544 96.824 312.696 74.288 320.184 59.168C315.648 59.312 310.608 59.672 307.152 60.32C306.648 60.32 306 59.96 306.072 59.384C306.144 58.808 306.792 58.16 307.44 58.016C311.184 57.296 316.368 56.936 321.408 56.792C323.928 51.896 326.16 47.648 327.24 45.704L327.816 44.624C328.896 42.608 330.192 40.376 332.424 38.36C333 38 333.576 38.072 333.864 38.648C334.08 39.08 333.72 39.872 333.216 40.304C330.696 43.472 327.168 49.88 323.784 56.72L324.072 56.72C326.304 56.648 329.04 56.576 330.768 56.576C332.424 56.504 334.8 56.504 336.456 56.504C337.176 56.504 337.536 57.08 337.248 57.8C337.032 58.448 336.312 58.88 335.664 58.88C333.432 58.88 331.128 58.88 328.896 58.952C327.24 58.952 325.368 59.024 323.28 59.096L322.632 59.096C319.032 66.296 315.576 74 313.848 78.104C311.904 82.568 304.92 99.272 304.92 106.256C304.92 107.768 305.424 108.848 306.216 109.208C310.182 109.775 333.795 92.5758 339.362 88.3134C340.292 86.2971 341.397 84.4274 342.36 83.144C342.864 82.64 343.728 82.28 344.16 82.496C344.664 82.784 344.664 83.288 344.448 83.792L344.088 84.152L344.16 84.152C341.928 87.032 338.4 94.808 340.344 96.752C342.072 98.408 348.12 92.216 350.496 89.768L351.72 88.544C352.368 87.968 353.304 87.032 354.312 86.24C356.184 84.8 358.344 83.72 359.064 84.944C359.28 85.304 359.208 86.24 359.064 87.248C359.064 87.32 358.992 87.464 358.992 87.536C358.848 88.832 358.56 90.128 358.344 91.352C358.056 92.72 357.84 93.944 357.84 94.808C357.84 95.744 358.128 96.32 358.992 96.32C360.648 96.32 364.32 94.232 371.952 88.832L372.456 88.472L373.104 87.968C373.345 87.8344 373.595 87.7504 373.829 87.7196C376.192 85.1303 378.976 82.8062 380.952 81.56C383.832 79.832 386.568 78.752 388.656 79.688C389.376 74 390.96 68.096 392.04 64.784C394.92 55.568 404.208 31.88 414.504 27.992C415.512 27.632 416.304 27.488 417.168 27.488C419.976 27.488 421.272 29.648 421.056 32.672ZM396.864 57.656C394.776 63.344 391.824 73.136 390.96 80.768L392.688 78.68C400.968 67.952 417.744 43.544 418.536 33.248C418.752 30.944 417.456 29.36 414.792 30.224C407.592 33.32 399.672 50.6 396.864 57.656ZM410.832 75.08C410.4 75.728 410.472 76.376 410.976 76.664C411.552 76.88 412.344 76.592 412.776 76.016C413.064 75.584 413.496 75.152 413.784 74.72C414.144 74.144 414.072 73.424 413.64 73.136C413.136 72.92 412.344 73.208 411.84 73.784L410.832 75.08ZM388.368 82.424C387.936 82.496 387.648 82.352 387.432 82.064L387.504 82.064C384.84 79.544 376.848 87.176 374.544 90.056C373.32 91.496 371.736 93.872 371.736 95.384C371.736 96.104 372.096 96.608 373.032 96.896C375.84 97.616 383.328 89.696 388.296 83.936C388.296 83.576 388.296 82.784 388.368 82.424ZM430.632 84.008C428.184 85.88 425.952 89.192 424.368 91.712L424.368 91.64C424.224 92.36 424.08 93.08 424.08 93.8C424.08 94.448 424.224 95.168 424.44 95.744C424.8 96.536 425.448 96.968 426.24 96.968C427.464 96.968 429.048 96.104 430.272 94.88C433.008 92.144 435.816 86.024 435.024 83.216C434.52 82.136 431.856 83.072 430.632 84.008ZM106.128 95.312C106.272 94.664 106.92 94.16 107.64 94.088C109.368 93.944 110.088 95.024 110.088 96.176C110.088 98.192 108.072 100.568 105.552 98.696C104.76 98.048 104.472 96.896 105.048 96.176Q105.804 95.42 106.128 95.312ZM193.896 95.312C194.04 94.664 194.688 94.16 195.408 94.088C197.136 93.944 197.856 95.024 197.856 96.176C197.856 98.192 195.84 100.568 193.32 98.696C192.528 98.048 192.24 96.896 192.816 96.176Q193.572 95.42 193.896 95.312ZM263.304 102.512L264.384 102.944C268.92 104.888 273.24 107.552 273.24 110.792C273.24 113.384 270.648 116.48 263.736 120.08C256.536 123.824 243.936 127.568 235.728 127.568Q233.244 127.568 231.408 127.136L231.48 127.136C229.608 126.632 228.672 125.84 228.672 124.832C228.672 120.152 246.528 110.36 262.944 102.368C263.016 102.368 263.16 102.44 263.304 102.512Z" />
  </g>
</svg>